<?xml version="1.0" encoding="UTF-8"?>
<svg width="21px" height="22px" viewBox="0 0 21 22" version="1.1" xmlns="http://www.w3.org/2000/svg" xmlns:xlink="http://www.w3.org/1999/xlink">
    <!-- Generator: Sketch 59.1 (86144) - https://sketch.com -->
    <title>Imported Layers</title>
    <desc>Created with Sketch.</desc>
    <g id="Page-1" stroke="none" stroke-width="1" fill="none" fill-rule="evenodd">
        <g id="Resume" transform="translate(-72.000000, -488.000000)" fill="#4A4A4A">
            <g id="Personal-info" transform="translate(39.560798, 62.000000)">
                <path d="M42.6473908,426.730816 C37.0483977,426.730816 32.4932502,431.305044 32.4932502,436.92749 C32.4932502,442.549936 37.0483977,447.124164 42.6473908,447.124164 C48.246384,447.124164 52.8015315,442.549936 52.8015315,436.92749 C52.8015315,431.305044 48.246384,426.730816 42.6473908,426.730816 L42.6473908,426.730816 Z M33.3157356,437.335357 L36.9667584,437.335357 C36.9939715,438.642571 37.1519699,439.879631 37.4192269,441.00616 L34.2361069,441.00616 C33.6959066,439.887789 33.3721926,438.645834 33.3157356,437.335357 L33.3157356,437.335357 Z M43.0535565,432.033086 L43.0535565,427.581626 C44.6396333,427.834912 46.0124731,429.553663 46.8036837,432.033086 L43.0535565,432.033086 L43.0535565,432.033086 Z M47.0360105,432.84882 C47.3178894,433.967192 47.4868543,435.209147 47.5160982,436.519623 L43.0535565,436.519623 L43.0535565,432.84882 L47.0360105,432.84882 L47.0360105,432.84882 Z M42.2412252,427.581626 L42.2412252,432.033086 L38.491098,432.033086 C39.2823086,429.553663 40.6551484,427.834912 42.2412252,427.581626 L42.2412252,427.581626 Z M42.2412252,432.84882 L42.2412252,436.519623 L37.7786835,436.519623 C37.8079274,435.209147 37.9768923,433.967192 38.2587712,432.84882 L42.2412252,432.84882 L42.2412252,432.84882 Z M36.9667584,436.519623 L33.3157356,436.519623 C33.3721926,435.209147 33.6959066,433.946798 34.2361069,432.828427 L37.4192269,432.828427 C37.1519699,433.954956 36.9939715,435.212409 36.9667584,436.519623 L36.9667584,436.519623 Z M37.7786835,437.335357 L42.2412252,437.335357 L42.2412252,441.00616 L38.2587712,441.00616 C37.9768923,439.887789 37.8079274,438.645834 37.7786835,437.335357 L37.7786835,437.335357 Z M42.2412252,441.821894 L42.2412252,446.273354 C40.6551484,446.020068 39.2823086,444.301317 38.491098,441.821894 L42.2412252,441.821894 L42.2412252,441.821894 Z M43.0535565,446.273354 L43.0535565,441.8015 L46.8036837,441.8015 C46.0124731,444.280924 44.6396333,446.020068 43.0535565,446.273354 L43.0535565,446.273354 Z M43.0535565,441.00616 L43.0535565,437.314964 L47.5160982,437.314964 C47.4868543,438.62544 47.3178894,439.887789 47.0360105,441.00616 L43.0535565,441.00616 L43.0535565,441.00616 Z M48.3280233,437.314964 L51.9790461,437.314964 C51.9225891,438.62544 51.5988751,439.887789 51.0586748,441.00616 L47.8755548,441.00616 C48.1428118,439.879631 48.3008102,438.622177 48.3280233,437.314964 L48.3280233,437.314964 Z M48.3280233,436.519623 C48.3008102,435.212409 48.1428118,433.975349 47.8755548,432.84882 L51.0586748,432.84882 C51.5988751,433.967192 51.9225891,435.209147 51.9790461,436.519623 L48.3280233,436.519623 L48.3280233,436.519623 Z M50.6135173,432.033086 L47.6582562,432.033086 C47.1420197,430.306586 46.3569015,428.893734 45.3963198,427.961758 C47.5871772,428.640041 49.4360431,430.107954 50.6135173,432.033086 L50.6135173,432.033086 Z M39.8984619,427.961758 C38.9378802,428.893734 38.152762,430.306586 37.6365255,432.033086 L34.6812644,432.033086 C35.8587386,430.107954 37.7076045,428.640041 39.8984619,427.961758 L39.8984619,427.961758 Z M34.6812644,441.821894 L37.6365255,441.821894 C38.152762,443.548395 38.9378802,444.961246 39.8984619,445.89363 C37.7076045,445.214531 35.8587386,443.747026 34.6812644,441.821894 L34.6812644,441.821894 Z M45.3963198,445.89363 C46.3569015,444.961246 47.1420197,443.528001 47.6582562,441.8015 L50.6135173,441.8015 C49.4360431,443.726632 47.5871772,445.214531 45.3963198,445.89363 L45.3963198,445.89363 Z" id="Imported-Layers"></path>
            </g>
        </g>
    </g>
</svg>