<?xml version="1.0" encoding="UTF-8"?>
<svg width="26px" height="19px" viewBox="0 0 26 19" version="1.1" xmlns="http://www.w3.org/2000/svg" xmlns:xlink="http://www.w3.org/1999/xlink">
    <!-- Generator: Sketch 59.1 (86144) - https://sketch.com -->
    <title>Imported Layers</title>
    <desc>Created with Sketch.</desc>
    <g id="Page-1" stroke="none" stroke-width="1" fill="none" fill-rule="evenodd">
        <g id="Resume" transform="translate(-67.000000, -379.000000)">
            <g id="Personal-info" transform="translate(39.560798, 62.000000)">
                <g id="Imported-Layers" transform="translate(28.431594, 317.626402)">
                    <path d="M22.1253381,0 L1.92394244,0 C0.862888186,0 0,0.866502641 0,1.93200143 L0,16.4220122 C0,17.4875109 0.862888186,18.3540136 1.92394244,18.3540136 L6.25281294,18.3540136 C6.51879799,18.3540136 6.73379856,18.1381124 6.73379856,17.8710132 L6.73379856,16.4220122 L7.69576978,16.4220122 L7.69576978,17.8710132 C7.69576978,18.1381124 7.91077035,18.3540136 8.17675539,18.3540136 L15.8725252,18.3540136 C16.1385102,18.3540136 16.3535108,18.1381124 16.3535108,17.8710132 L16.3535108,16.4220122 L17.315482,16.4220122 L17.315482,17.8710132 C17.315482,18.1381124 17.5304826,18.3540136 17.7964676,18.3540136 L22.1253381,18.3540136 C23.1863924,18.3540136 24.0492806,17.4875109 24.0492806,16.4220122 L24.0492806,1.93200143 C24.0492806,0.866502641 23.1863924,0 22.1253381,0 L22.1253381,0 Z M23.0873093,16.4220122 C23.0873093,16.9542785 22.6558652,17.3880129 22.1253381,17.3880129 L18.2774532,17.3880129 L18.2774532,16.4220122 L19.2394244,16.4220122 C19.5054095,16.4220122 19.7204101,16.206111 19.7204101,15.9390118 C19.7204101,15.6719126 19.5054095,15.4560114 19.2394244,15.4560114 L14.4295683,15.4560114 C14.1635833,15.4560114 13.9485827,15.6719126 13.9485827,15.9390118 C13.9485827,16.206111 14.1635833,16.4220122 14.4295683,16.4220122 L15.3915396,16.4220122 L15.3915396,17.3880129 L8.657741,17.3880129 L8.657741,16.4220122 L9.61971222,16.4220122 C9.88569726,16.4220122 10.1006978,16.206111 10.1006978,15.9390118 C10.1006978,15.6719126 9.88569726,15.4560114 9.61971222,15.4560114 L4.80985611,15.4560114 C4.54387107,15.4560114 4.3288705,15.6719126 4.3288705,15.9390118 C4.3288705,16.206111 4.54387107,16.4220122 4.80985611,16.4220122 L5.77182733,16.4220122 L5.77182733,17.3880129 L1.92394244,17.3880129 C1.3938963,17.3880129 0.961971222,16.9542785 0.961971222,16.4220122 L0.961971222,1.93200143 C0.961971222,1.39973504 1.3938963,0.966000715 1.92394244,0.966000715 L22.1253381,0.966000715 C22.6558652,0.966000715 23.0873093,1.39973504 23.0873093,1.93200143 L23.0873093,16.4220122 L23.0873093,16.4220122 Z" id="Fill-1" fill="#4D4D4D"></path>
                    <path d="M21.1633669,5.31300393 L13.9485827,5.31300393 C13.6825977,5.31300393 13.4675971,5.52890509 13.4675971,5.79600429 C13.4675971,6.06310349 13.6825977,6.27900465 13.9485827,6.27900465 L21.1633669,6.27900465 C21.4293519,6.27900465 21.6443525,6.06310349 21.6443525,5.79600429 C21.6443525,5.52890509 21.4293519,5.31300393 21.1633669,5.31300393" id="Fill-2" fill="#4D4D4D"></path>
                    <path d="M21.1633669,7.72800572 L13.9485827,7.72800572 C13.6825977,7.72800572 13.4675971,7.94390688 13.4675971,8.21100608 C13.4675971,8.47810528 13.6825977,8.69400644 13.9485827,8.69400644 L21.1633669,8.69400644 C21.4293519,8.69400644 21.6443525,8.47810528 21.6443525,8.21100608 C21.6443525,7.94390688 21.4293519,7.72800572 21.1633669,7.72800572" id="Fill-3" fill="#4D4D4D"></path>
                    <path d="M21.1633669,10.1430075 L13.9485827,10.1430075 C13.6825977,10.1430075 13.4675971,10.3589087 13.4675971,10.6260079 C13.4675971,10.8931071 13.6825977,11.1090082 13.9485827,11.1090082 L21.1633669,11.1090082 C21.4293519,11.1090082 21.6443525,10.8931071 21.6443525,10.6260079 C21.6443525,10.3589087 21.4293519,10.1430075 21.1633669,10.1430075" id="Fill-4" fill="#4D4D4D"></path>
                    <path d="M9.95159229,9.06591671 C9.83567476,9.03162368 9.7139854,8.99539866 9.58652421,8.95482663 C9.44078557,8.90894159 9.2993758,8.86402256 9.15508012,8.81668853 L9.04156752,8.7794975 C8.91266337,8.73795947 8.69766281,8.66840742 8.657741,8.59740636 C8.657741,8.19796507 8.66206987,8.16270604 8.8347437,7.98061491 C9.37008069,7.41791949 9.61971222,6.73254198 9.61971222,5.82256931 C9.61971222,4.36197623 8.65293114,3.3810025 7.21478417,3.3810025 C5.77663719,3.3810025 4.80985611,4.36197623 4.80985611,5.82256931 C4.80985611,6.73302498 5.05948764,7.41888549 5.59434364,7.98061491 C5.76749846,8.16318904 5.77182733,8.19796507 5.77375128,8.61962438 C5.73190553,8.66840742 5.51642397,8.73844247 5.38751983,8.7794975 L4.84256313,8.95530963 C4.71558293,8.99539866 4.59389357,9.03162368 4.47797604,9.06591671 C3.22212261,9.43975899 2.45062169,9.78462124 2.40492806,12.0653489 C2.40252313,12.195276 2.45206465,12.3203731 2.54248994,12.4131092 C2.63291524,12.5058453 2.75652854,12.5580093 2.88591367,12.5580093 L11.5436547,12.5580093 C11.6730398,12.5580093 11.7966531,12.5058453 11.8870784,12.4131092 C11.9775037,12.3203731 12.0270452,12.195276 12.0246403,12.0653489 C11.9789466,9.78462124 11.2074457,9.43975899 9.95159229,9.06591671 L9.95159229,9.06591671 Z M3.38806264,11.5920086 C3.47608301,10.3719497 3.82527856,10.2681046 4.75165685,9.9927944 C4.87238424,9.95608637 4.99936444,9.91841234 5.17492419,9.8628673 C5.30911918,9.82036327 5.44090923,9.77834224 5.57606619,9.7334232 L5.68188302,9.69961318 C6.07532925,9.57258409 6.73379856,9.36054693 6.73379856,8.59740636 C6.73379856,8.09122199 6.7121542,7.75843474 6.28984884,7.31359141 C5.9267047,6.93250413 5.77182733,6.4862118 5.77182733,5.82256931 C5.77182733,4.89858963 6.3110122,4.34700322 7.21478417,4.34700322 C8.11855613,4.34700322 8.657741,4.89858963 8.657741,5.82256931 C8.657741,6.4857288 8.50286363,6.93202113 8.1397195,7.31407441 C7.71741413,7.75746874 7.69576978,8.09073899 7.69576978,8.59740636 C7.69576978,9.36054693 8.35375809,9.57210108 8.74768531,9.69913018 L8.85398313,9.7339062 C9.00356965,9.78317224 9.14786534,9.82905728 9.29648989,9.87590831 C9.43020389,9.91841234 9.55718409,9.95608637 9.67791148,9.9927944 C10.6042898,10.2681046 10.9534853,10.3719497 11.0415057,11.5920086 L3.38806264,11.5920086 L3.38806264,11.5920086 Z" id="Fill-5" fill="#4A4A4A"></path>
                </g>
            </g>
        </g>
    </g>
</svg>