<?xml version="1.0" encoding="UTF-8"?>
<svg width="19px" height="22px" viewBox="0 0 19 22" version="1.1" xmlns="http://www.w3.org/2000/svg" xmlns:xlink="http://www.w3.org/1999/xlink">
    <!-- Generator: Sketch 59.1 (86144) - https://sketch.com -->
    <title>Imported Layers</title>
    <desc>Created with Sketch.</desc>
    <g id="Page-1" stroke="none" stroke-width="1" fill="none" fill-rule="evenodd">
        <g id="Resume" transform="translate(-376.000000, -1173.000000)" fill="#4D4D4D">
            <g id="Background" transform="translate(342.154190, 64.000000)">
                <g id="Education" transform="translate(34.524078, 1108.574163)">
                    <g id="Imported-Layers" transform="translate(0.253854, 0.541695)">
                        <path d="M10.0301755,17.924241 L14.2610675,13.4101148 C14.3401852,13.3257006 14.3850326,13.2105904 14.3850326,13.0909661 L14.3850326,1.35423787 C14.3850326,0.60760139 13.8155546,0 13.115765,0 L1.26926758,0 C0.569478056,0 0,0.60760139 0,1.35423787 L0,16.702267 C0,17.4489035 0.569478056,18.0565049 1.26926758,18.0565049 L9.73105148,18.0565049 C9.84359321,18.0565049 9.95063478,18.0086552 10.0301755,17.924241 L10.0301755,17.924241 Z M10.1541407,16.5153822 L10.1541407,13.9937913 C10.1541407,13.7450629 10.3436846,13.5423787 10.5772299,13.5423787 L12.9406061,13.5423787 L10.1541407,16.5153822 L10.1541407,16.5153822 Z M0.84617839,16.702267 L0.84617839,1.35423787 C0.84617839,1.10550951 1.03572235,0.902825245 1.26926758,0.902825245 L13.115765,0.902825245 C13.3493103,0.902825245 13.5388542,1.10550951 13.5388542,1.35423787 L13.5388542,12.6395534 L10.5772299,12.6395534 C9.87744034,12.6395534 9.30796229,13.2471548 9.30796229,13.9937913 L9.30796229,17.1536797 L1.26926758,17.1536797 C1.03572235,17.1536797 0.84617839,16.9509954 0.84617839,16.702267 L0.84617839,16.702267 Z" id="Fill-1"></path>
                        <path d="M3.80780275,4.96553885 L10.5772299,4.96553885 C10.8107751,4.96553885 11.0003191,4.76330599 11.0003191,4.51412622 C11.0003191,4.26494646 10.8107751,4.0627136 10.5772299,4.0627136 L3.80780275,4.0627136 C3.57425752,4.0627136 3.38471356,4.26494646 3.38471356,4.51412622 C3.38471356,4.76330599 3.57425752,4.96553885 3.80780275,4.96553885" id="Fill-2"></path>
                        <path d="M3.80780275,7.22260196 L10.5772299,7.22260196 C10.8107751,7.22260196 11.0003191,7.0203691 11.0003191,6.77118934 C11.0003191,6.52200957 10.8107751,6.31977671 10.5772299,6.31977671 L3.80780275,6.31977671 C3.57425752,6.31977671 3.38471356,6.52200957 3.38471356,6.77118934 C3.38471356,7.0203691 3.57425752,7.22260196 3.80780275,7.22260196" id="Fill-3"></path>
                        <path d="M3.80780275,9.47966507 L10.5772299,9.47966507 C10.8107751,9.47966507 11.0003191,9.27743222 11.0003191,9.02825245 C11.0003191,8.77907268 10.8107751,8.57683983 10.5772299,8.57683983 L3.80780275,8.57683983 C3.57425752,8.57683983 3.38471356,8.77907268 3.38471356,9.02825245 C3.38471356,9.27743222 3.57425752,9.47966507 3.80780275,9.47966507" id="Fill-4"></path>
                        <path d="M10.5772299,11.7367282 C10.8107751,11.7367282 11.0003191,11.5344953 11.0003191,11.2853156 C11.0003191,11.0361358 10.8107751,10.8339029 10.5772299,10.8339029 L3.80780275,10.8339029 C3.57425752,10.8339029 3.38471356,11.0361358 3.38471356,11.2853156 C3.38471356,11.5344953 3.57425752,11.7367282 3.80780275,11.7367282 L10.5772299,11.7367282" id="Fill-5"></path>
                        <path d="M17.346657,4.0627136 C17.1126887,4.0627136 16.9235678,4.26494646 16.9235678,4.51412622 L16.9235678,20.313568 C16.9235678,20.5622964 16.7340238,20.7649806 16.5004786,20.7649806 L4.23089195,20.7649806 C3.99692362,20.7649806 3.80780275,20.9672135 3.80780275,21.2163933 C3.80780275,21.465573 3.99692362,21.6678059 4.23089195,21.6678059 L16.5004786,21.6678059 C17.2002681,21.6678059 17.7697462,21.0602045 17.7697462,20.313568 L17.7697462,4.51412622 C17.7697462,4.26494646 17.5806253,4.0627136 17.346657,4.0627136" id="Fill-6"></path>
                        <path d="M16.0773894,18.5079175 L16.0773894,2.70847573 C16.0773894,2.45929597 15.8882685,2.25706311 15.6543002,2.25706311 C15.4203319,2.25706311 15.231211,2.45929597 15.231211,2.70847573 L15.231211,18.5079175 C15.231211,18.7566459 15.0416671,18.9593301 14.8081218,18.9593301 L2.53853517,18.9593301 C2.30456684,18.9593301 2.11544597,19.161563 2.11544597,19.4107428 C2.11544597,19.6599225 2.30456684,19.8621554 2.53853517,19.8621554 L14.8081218,19.8621554 C15.5079114,19.8621554 16.0773894,19.254554 16.0773894,18.5079175" id="Fill-7"></path>
                    </g>
                </g>
            </g>
        </g>
    </g>
</svg>