<?xml version="1.0" encoding="UTF-8"?>
<svg width="24px" height="24px" viewBox="0 0 24 24" version="1.1" xmlns="http://www.w3.org/2000/svg" xmlns:xlink="http://www.w3.org/1999/xlink">
    <!-- Generator: Sketch 59.1 (86144) - https://sketch.com -->
    <title>Imported Layers</title>
    <desc>Created with Sketch.</desc>
    <g id="Page-1" stroke="none" stroke-width="1" fill="none" fill-rule="evenodd">
        <g id="Resume" transform="translate(-370.000000, -144.000000)" fill="#4D4D4D">
            <g id="Background" transform="translate(342.154190, 64.000000)">
                <g id="Experience" transform="translate(28.431594, 80.337662)">
                    <path d="M21.1302832,3.83327154 L16.0773894,3.83327154 L16.0773894,2.75427659 C16.0773894,1.56414516 15.2533084,0.596286685 14.2399735,0.596286685 L8.72772568,0.596286685 C7.71439079,0.596286685 6.89030975,1.56414516 6.89030975,2.75427659 L6.89030975,3.83327154 L1.83741593,3.83327154 C0.824081046,3.83327154 0,4.80113002 0,5.99126145 L0,21.0971908 C0,22.2873222 0.824081046,23.2551807 1.83741593,23.2551807 L21.1302832,23.2551807 C22.1436181,23.2551807 22.9676992,22.2873222 22.9676992,21.0971908 L22.9676992,5.99126145 C22.9676992,4.80113002 22.1436181,3.83327154 21.1302832,3.83327154 L21.1302832,3.83327154 Z M7.80901771,2.75427659 C7.80901771,2.15921087 8.22151759,1.67528164 8.72772568,1.67528164 L14.2399735,1.67528164 C14.7466409,1.67528164 15.1586814,2.15921087 15.1586814,2.75427659 L15.1586814,3.83327154 L7.80901771,3.83327154 L7.80901771,2.75427659 L7.80901771,2.75427659 Z M22.0489912,21.0971908 C22.0489912,21.6922565 21.6369507,22.1761857 21.1302832,22.1761857 L1.83741593,22.1761857 C1.33120784,22.1761857 0.918707966,21.6922565 0.918707966,21.0971908 L0.918707966,12.4512042 C1.3036466,12.7937851 1.77769991,13.0047286 2.29676992,13.0047286 L9.64643364,13.0047286 L9.64643364,13.5442261 C9.64643364,14.4365549 10.2647241,15.1627185 11.0244956,15.1627185 L11.9432036,15.1627185 C12.702975,15.1627185 13.3212655,14.4365549 13.3212655,13.5442261 L13.3212655,13.0047286 L20.6709292,13.0047286 C21.1899992,13.0047286 21.6640525,12.7937851 22.0489912,12.4512042 L22.0489912,21.0971908 L22.0489912,21.0971908 Z M10.5651416,13.5442261 L10.5651416,11.3862362 C10.5651416,11.0889731 10.7709322,10.8467387 11.0244956,10.8467387 L11.9432036,10.8467387 C12.196767,10.8467387 12.4025575,11.0889731 12.4025575,11.3862362 L12.4025575,13.5442261 C12.4025575,13.8414892 12.196767,14.0837236 11.9432036,14.0837236 L11.0244956,14.0837236 C10.7709322,14.0837236 10.5651416,13.8414892 10.5651416,13.5442261 L10.5651416,13.5442261 Z M22.0489912,10.3072413 C22.0489912,11.1995701 21.4307007,11.9257337 20.6709292,11.9257337 L13.3212655,11.9257337 L13.3212655,11.3862362 C13.3212655,10.4939074 12.702975,9.76774379 11.9432036,9.76774379 L11.0244956,9.76774379 C10.2647241,9.76774379 9.64643364,10.4939074 9.64643364,11.3862362 L9.64643364,11.9257337 L2.29676992,11.9257337 C1.53699843,11.9257337 0.918707966,11.1995701 0.918707966,10.3072413 L0.918707966,5.99126145 C0.918707966,5.39619573 1.33120784,4.9122665 1.83741593,4.9122665 L21.1302832,4.9122665 C21.6369507,4.9122665 22.0489912,5.39619573 22.0489912,5.99126145 L22.0489912,10.3072413 L22.0489912,10.3072413 Z" id="Imported-Layers"></path>
                </g>
            </g>
        </g>
    </g>
</svg>